HIERARCHY
ROOT Hips
{
	OFFSET 0.000000 87.230942 0.000000
	CHANNELS 6 Xposition Yposition Zposition Xrotation Yrotation Zrotation
	JOINT Pelvis
	{
		OFFSET 0.000000 0.000000 0.000000
		CHANNELS 3 Xrotation Yrotation Zrotation
		JOINT LeftUpLeg
		{
			OFFSET 12.017000 -9.376404 -2.439400
			CHANNELS 3 Xrotation Yrotation Zrotation
			JOINT LeftLeg
			{
				OFFSET -0.007312 -32.846973 2.110600
				CHANNELS 3 Xrotation Yrotation Zrotation
				JOINT LeftFoot
				{
					OFFSET 0.007312 -32.065170 -0.570400
					CHANNELS 3 Xrotation Yrotation Zrotation
					JOINT LeftToeBase
					{
						OFFSET 0.728300 -11.045900 13.180700
						CHANNELS 3 Xrotation Yrotation Zrotation
						End Site
						{
							OFFSET 0.000000 17.212589 0.000000
						}
					}
				}
				JOINT LeftPantLeg
				{
					OFFSET 0.002788 -16.709013 -3.143600
					CHANNELS 3 Xrotation Yrotation Zrotation
					End Site
					{
						OFFSET -0.605125 24.528742 0.000000
					}
				}
			}
			JOINT Left_Butt
			{
				OFFSET -6.630234 1.326584 -3.183700
				CHANNELS 3 Xrotation Yrotation Zrotation
				End Site
				{
					OFFSET -0.498041 20.188049 0.000000
				}
			}
		}
		JOINT RightUpLeg
		{
			OFFSET -11.717000 -9.376404 -2.439400
			CHANNELS 3 Xrotation Yrotation Zrotation
			JOINT RightLeg
			{
				OFFSET -0.003241 -32.846912 2.110600
				CHANNELS 3 Xrotation Yrotation Zrotation
				JOINT RightFoot
				{
					OFFSET 0.003241 -32.065136 -0.570500
					CHANNELS 3 Xrotation Yrotation Zrotation
					JOINT RightToeBase
					{
						OFFSET -0.728300 -11.045901 13.180700
						CHANNELS 3 Xrotation Yrotation Zrotation
						End Site
						{
							OFFSET 0.000000 17.212593 0.000000
						}
					}
				}
				JOINT RightPantLeg
				{
					OFFSET 0.008142 -16.708982 -3.143700
					CHANNELS 3 Xrotation Yrotation Zrotation
					End Site
					{
						OFFSET 0.605088 24.528715 0.000000
					}
				}
			}
			JOINT Right_Butt
			{
				OFFSET 6.630732 1.326584 -3.183700
				CHANNELS 3 Xrotation Yrotation Zrotation
				End Site
				{
					OFFSET 0.498015 20.188240 0.000000
				}
			}
		}
	}
	JOINT Spine
	{
		OFFSET -0.062400 7.848404 3.918300
		CHANNELS 3 Xrotation Yrotation Zrotation
		JOINT Spine1
		{
			OFFSET -0.072800 11.422302 0.713400
			CHANNELS 3 Xrotation Yrotation Zrotation
			JOINT Spine2
			{
				OFFSET -0.083200 13.054001 -1.931600
				CHANNELS 3 Xrotation Yrotation Zrotation
				JOINT Neck
				{
					OFFSET -0.092200 14.121796 -5.138800
					CHANNELS 3 Xrotation Yrotation Zrotation
					JOINT Head
					{
						OFFSET 0.000200 10.447403 -0.842000
						CHANNELS 3 Xrotation Yrotation Zrotation
						JOINT Visor
						{
							OFFSET 0.457100 25.671204 16.550400
							CHANNELS 3 Xrotation Yrotation Zrotation
							End Site
							{
								OFFSET 0.000000 26.061493 0.000000
							}
						}
						JOINT HairMidA
						{
							OFFSET 0.459400 31.585403 8.437400
							CHANNELS 3 Xrotation Yrotation Zrotation
							End Site
							{
								OFFSET 0.000000 26.061493 0.000000
							}
						}
						JOINT HairMidB
						{
							OFFSET 0.464000 33.309204 -8.389700
							CHANNELS 3 Xrotation Yrotation Zrotation
							End Site
							{
								OFFSET 0.000000 26.061493 0.000000
							}
						}
						JOINT HairMidC
						{
							OFFSET 0.466600 27.991196 -17.375099
							CHANNELS 3 Xrotation Yrotation Zrotation
							End Site
							{
								OFFSET 0.000000 26.061493 0.000000
							}
						}
						JOINT HairMidD
						{
							OFFSET 0.467700 17.888092 -21.169500
							CHANNELS 3 Xrotation Yrotation Zrotation
							End Site
							{
								OFFSET 0.000000 26.061493 0.000000
							}
						}
						JOINT HairMidE
						{
							OFFSET 5.325700 3.514603 -14.369699
							CHANNELS 3 Xrotation Yrotation Zrotation
							End Site
							{
								OFFSET 0.000000 26.061493 0.000000
							}
						}
						JOINT HairMidF
						{
							OFFSET -4.394100 3.514603 -14.372400
							CHANNELS 3 Xrotation Yrotation Zrotation
							End Site
							{
								OFFSET 0.000000 26.061493 0.000000
							}
						}
						JOINT HairLeftA
						{
							OFFSET 15.319900 25.746506 2.623300
							CHANNELS 3 Xrotation Yrotation Zrotation
							End Site
							{
								OFFSET 0.000000 26.061493 0.000000
							}
						}
						JOINT HairLeftB
						{
							OFFSET 12.619500 29.289398 -8.731499
							CHANNELS 3 Xrotation Yrotation Zrotation
							End Site
							{
								OFFSET 0.000000 26.061493 0.000000
							}
						}
						JOINT HairLeftC
						{
							OFFSET 15.714800 15.959900 2.909800
							CHANNELS 3 Xrotation Yrotation Zrotation
							End Site
							{
								OFFSET 0.000000 26.061493 0.000000
							}
						}
						JOINT HairLeftD
						{
							OFFSET 16.101700 18.437408 -7.553200
							CHANNELS 3 Xrotation Yrotation Zrotation
							End Site
							{
								OFFSET 0.000000 26.061493 0.000000
							}
						}
						JOINT HairLeftE
						{
							OFFSET 9.731900 17.915009 -18.316799
							CHANNELS 3 Xrotation Yrotation Zrotation
							End Site
							{
								OFFSET 0.000000 26.061493 0.000000
							}
						}
						JOINT HairLeftF
						{
							OFFSET 11.204300 4.953598 -9.668100
							CHANNELS 3 Xrotation Yrotation Zrotation
							End Site
							{
								OFFSET 0.000000 26.061493 0.000000
							}
						}
						JOINT HairRightA
						{
							OFFSET -14.397900 25.746307 2.615100
							CHANNELS 3 Xrotation Yrotation Zrotation
							End Site
							{
								OFFSET 0.000000 26.061493 0.000000
							}
						}
						JOINT HairRightB
						{
							OFFSET -11.691200 29.289200 -8.738199
							CHANNELS 3 Xrotation Yrotation Zrotation
							End Site
							{
								OFFSET 0.000000 26.061493 0.000000
							}
						}
						JOINT HairRightC
						{
							OFFSET -14.792900 15.959702 2.901400
							CHANNELS 3 Xrotation Yrotation Zrotation
							End Site
							{
								OFFSET 0.000000 26.061493 0.000000
							}
						}
						JOINT HairRightD
						{
							OFFSET -15.174000 18.437195 -7.561900
							CHANNELS 3 Xrotation Yrotation Zrotation
							End Site
							{
								OFFSET 0.000000 26.061493 0.000000
							}
						}
						JOINT HairRightE
						{
							OFFSET -8.798200 17.914902 -18.322001
							CHANNELS 3 Xrotation Yrotation Zrotation
							End Site
							{
								OFFSET 0.000000 26.061493 0.000000
							}
						}
						JOINT HairRightF
						{
							OFFSET -10.275200 4.953506 -9.674099
							CHANNELS 3 Xrotation Yrotation Zrotation
							End Site
							{
								OFFSET 0.000000 26.061493 0.000000
							}
						}
					}
				}
				JOINT LeftShoulder
				{
					OFFSET 5.133500 7.341202 -1.867600
					CHANNELS 3 Xrotation Yrotation Zrotation
					JOINT LeftArm
					{
						OFFSET 8.072663 0.936867 -2.176600
						CHANNELS 3 Xrotation Yrotation Zrotation
						JOINT LeftForeArm
						{
							OFFSET 31.271999 0.000000 0.000000
							CHANNELS 3 Xrotation Yrotation Zrotation
							JOINT LeftHand
							{
								OFFSET 31.771030 0.000000 0.000000
								CHANNELS 3 Xrotation Yrotation Zrotation
								JOINT LeftHandThumb1
								{
									OFFSET 2.886520 -2.557846 4.416640
									CHANNELS 3 Xrotation Yrotation Zrotation
									JOINT LeftHandThumb2
									{
										OFFSET 2.371025 -1.368912 1.368911
										CHANNELS 3 Xrotation Yrotation Zrotation
										JOINT LeftHandThumb3
										{
											OFFSET 2.243378 -1.295212 1.295213
											CHANNELS 3 Xrotation Yrotation Zrotation
											End Site
											{
												OFFSET -0.332611 2.876945 0.020015
											}
										}
									}
								}
								JOINT LeftHandIndex1
								{
									OFFSET 8.568985 -0.641945 3.119977
									CHANNELS 3 Xrotation Yrotation Zrotation
									JOINT LeftHandIndex2
									{
										OFFSET 3.348503 0.000000 0.000000
										CHANNELS 3 Xrotation Yrotation Zrotation
										JOINT LeftHandIndex3
										{
											OFFSET 3.314552 0.000000 0.000000
											CHANNELS 3 Xrotation Yrotation Zrotation
											End Site
											{
												OFFSET -1.032898 3.075485 0.678796
											}
										}
									}
								}
								JOINT LeftHandMiddle1
								{
									OFFSET 8.124603 0.000000 0.000000
									CHANNELS 3 Xrotation Yrotation Zrotation
									JOINT LeftHandMiddle2
									{
										OFFSET 4.166275 0.000000 0.000000
										CHANNELS 3 Xrotation Yrotation Zrotation
										JOINT LeftHandMiddle3
										{
											OFFSET 3.018135 0.000000 0.000000
											CHANNELS 3 Xrotation Yrotation Zrotation
											End Site
											{
												OFFSET -1.032700 2.767982 0.617226
											}
										}
									}
								}
								JOINT LeftHandRing1
								{
									OFFSET 8.571686 -0.031357 -2.884048
									CHANNELS 3 Xrotation Yrotation Zrotation
									JOINT LeftHandRing2
									{
										OFFSET 3.671181 0.000000 0.000000
										CHANNELS 3 Xrotation Yrotation Zrotation
										JOINT LeftHandRing3
										{
											OFFSET 2.728851 0.000000 0.000000
											CHANNELS 3 Xrotation Yrotation Zrotation
											End Site
											{
												OFFSET -0.815796 2.539223 0.577389
											}
										}
									}
								}
								JOINT LeftHandPinky1
								{
									OFFSET 7.854515 -0.675232 -5.213020
									CHANNELS 3 Xrotation Yrotation Zrotation
									JOINT LeftHandPinky2
									{
										OFFSET 3.068596 0.000000 0.000000
										CHANNELS 3 Xrotation Yrotation Zrotation
										JOINT LeftHandPinky3
										{
											OFFSET 2.396042 0.000000 0.000000
											CHANNELS 3 Xrotation Yrotation Zrotation
											End Site
											{
												OFFSET -0.524597 2.267998 0.567429
											}
										}
									}
								}
							}
							JOINT LeftSleeve
							{
								OFFSET 19.684509 -0.200119 0.476146
								CHANNELS 3 Xrotation Yrotation Zrotation
								End Site
								{
									OFFSET -0.031017 25.731133 -0.002868
								}
							}
						}
					}
				}
				JOINT RightShoulder
				{
					OFFSET -4.395900 7.341202 -1.870200
					CHANNELS 3 Xrotation Yrotation Zrotation
					JOINT RightArm
					{
						OFFSET -8.071453 0.936867 -2.181100
						CHANNELS 3 Xrotation Yrotation Zrotation
						JOINT RightForeArm
						{
							OFFSET -31.272011 0.000000 0.000000
							CHANNELS 3 Xrotation Yrotation Zrotation
							JOINT RightHand
							{
								OFFSET -31.771019 0.000000 0.000000
								CHANNELS 3 Xrotation Yrotation Zrotation
								JOINT RightHandThumb1
								{
									OFFSET -2.886520 -2.557808 4.416626
									CHANNELS 3 Xrotation Yrotation Zrotation
									JOINT RightHandThumb2
									{
										OFFSET -2.371056 -1.368927 1.368928
										CHANNELS 3 Xrotation Yrotation Zrotation
										JOINT RightHandThumb3
										{
											OFFSET -2.243362 -1.295204 1.295206
											CHANNELS 3 Xrotation Yrotation Zrotation
											End Site
											{
												OFFSET 0.332642 2.876938 0.020047
											}
										}
									}
								}
								JOINT RightHandIndex1
								{
									OFFSET -8.568993 -0.641953 3.120017
									CHANNELS 3 Xrotation Yrotation Zrotation
									JOINT RightHandIndex2
									{
										OFFSET -3.348518 0.000000 0.000000
										CHANNELS 3 Xrotation Yrotation Zrotation
										JOINT RightHandIndex3
										{
											OFFSET -3.314552 0.000000 0.000000
											CHANNELS 3 Xrotation Yrotation Zrotation
											End Site
											{
												OFFSET 1.032898 3.075478 0.678804
											}
										}
									}
								}
								JOINT RightHandMiddle1
								{
									OFFSET -8.124588 0.000000 0.000000
									CHANNELS 3 Xrotation Yrotation Zrotation
									JOINT RightHandMiddle2
									{
										OFFSET -4.166275 0.000000 0.000000
										CHANNELS 3 Xrotation Yrotation Zrotation
										JOINT RightHandMiddle3
										{
											OFFSET -3.018097 0.000000 0.000000
											CHANNELS 3 Xrotation Yrotation Zrotation
											End Site
											{
												OFFSET 1.032700 2.767937 0.617197
											}
										}
									}
								}
								JOINT RightHandRing1
								{
									OFFSET -8.571747 -0.031349 -2.884061
									CHANNELS 3 Xrotation Yrotation Zrotation
									JOINT RightHandRing2
									{
										OFFSET -3.671204 0.000000 0.000000
										CHANNELS 3 Xrotation Yrotation Zrotation
										JOINT RightHandRing3
										{
											OFFSET -2.728874 0.000000 0.000000
											CHANNELS 3 Xrotation Yrotation Zrotation
											End Site
											{
												OFFSET 0.815804 2.539261 0.577413
											}
										}
									}
								}
								JOINT RightHandPinky1
								{
									OFFSET -7.854561 -0.675247 -5.212970
									CHANNELS 3 Xrotation Yrotation Zrotation
									JOINT RightHandPinky2
									{
										OFFSET -3.068550 0.000000 0.000000
										CHANNELS 3 Xrotation Yrotation Zrotation
										JOINT RightHandPinky3
										{
											OFFSET -2.395981 0.000000 0.000000
											CHANNELS 3 Xrotation Yrotation Zrotation
											End Site
											{
												OFFSET 0.524605 2.267952 0.567413
											}
										}
									}
								}
							}
							JOINT RightSleeve
							{
								OFFSET -19.684753 -0.200165 0.476065
								CHANNELS 3 Xrotation Yrotation Zrotation
								End Site
								{
									OFFSET 0.031342 25.731255 -0.002917
								}
							}
						}
					}
				}
				JOINT Hood
				{
					OFFSET 0.369700 14.447800 -5.317800
					CHANNELS 3 Xrotation Yrotation Zrotation
					JOINT Hood1
					{
						OFFSET 0.001700 -5.553802 -5.895100
						CHANNELS 3 Xrotation Yrotation Zrotation
						JOINT Hood2
						{
							OFFSET -0.000200 -8.380501 0.763600
							CHANNELS 3 Xrotation Yrotation Zrotation
							End Site
							{
								OFFSET 0.000000 8.415215 0.000000
							}
						}
					}
				}
				JOINT Left_Breast
				{
					OFFSET 5.682500 3.120102 3.188800
					CHANNELS 3 Xrotation Yrotation Zrotation
					End Site
					{
						OFFSET 0.000000 10.528564 0.000000
					}
				}
				JOINT Right_Breast
				{
					OFFSET -4.947600 3.120102 3.185900
					CHANNELS 3 Xrotation Yrotation Zrotation
					End Site
					{
						OFFSET 0.000000 10.528564 0.000000
					}
				}
				JOINT Whistle
				{
					OFFSET 0.368200 11.471298 0.095400
					CHANNELS 3 Xrotation Yrotation Zrotation
					JOINT Whistle1
					{
						OFFSET -0.002000 -6.349899 7.479800
						CHANNELS 3 Xrotation Yrotation Zrotation
						JOINT Whistle2
						{
							OFFSET -0.001300 -8.217598 4.717600
							CHANNELS 3 Xrotation Yrotation Zrotation
							End Site
							{
								OFFSET 0.000000 9.475479 0.000000
							}
						}
					}
				}
			}
		}
		JOINT Belly
		{
			OFFSET 0.212400 1.593002 3.163700
			CHANNELS 3 Xrotation Yrotation Zrotation
			End Site
			{
				OFFSET 0.000000 7.496635 0.000000
			}
		}
	}
	JOINT FitGrandmaFacialAnim_Joint
	{
		OFFSET 1.150000 -86.211197 -1.220100
		CHANNELS 3 Xrotation Yrotation Zrotation
		End Site
		{
			OFFSET 0.000000 31.666618 0.000000
		}
	}
}
MOTION
Frames: 4
Frame Time: 0.016667
-0.681080 79.085709 2.016430 -1.734725 -17.036408 -1.849342 -0.000000 -0.000000 -0.000000 -32.860921 18.694385 14.362812 51.425584 0.382253 8.440326 -19.447277 1.673949 -8.483035 0.000000 -0.000000 0.000000 0.000002 -0.000000 -0.000000 0.000001 -0.000001 -0.000000 -26.355204 -24.013219 -13.485698 49.324771 -2.281367 -10.245611 -23.085865 -3.028630 12.657100 0.000000 0.000000 -0.000000 0.000000 0.000001 -0.000000 0.000001 0.000002 0.000000 3.886206 2.376922 -0.459148 2.929113 2.056185 -0.138334 2.894089 2.112998 -0.161224 1.137079 0.245403 5.249918 -1.998747 7.430611 1.905183 -0.000000 -0.000000 0.000000 -0.000000 -0.000000 0.000000 -0.000000 -0.000000 0.000000 -0.000000 -0.000000 0.000000 -0.000000 -0.000000 0.000000 -0.000000 -0.000000 0.000000 -0.000000 -0.000000 0.000000 -0.000000 -0.000000 0.000000 -0.000000 -0.000000 0.000000 -0.000000 -0.000000 0.000000 -0.000000 -0.000000 0.000000 -0.000000 -0.000000 0.000000 -0.000000 -0.000000 0.000000 -0.000000 -0.000000 0.000000 -0.000000 -0.000000 0.000000 -0.000000 -0.000000 0.000000 -0.000000 -0.000000 0.000000 -0.000000 -0.000000 0.000000 -0.000000 -0.000000 0.000000 1.375475 -4.867613 21.431202 -66.234270 -43.614856 -65.822028 -0.000005 -37.698375 -0.000003 -66.348587 -13.253363 -9.215207 22.600963 -28.107355 -14.151489 29.406830 28.726505 -29.411771 0.000002 0.000001 -0.000001 0.797669 3.221921 -27.804734 0.799579 3.225524 -27.838606 0.000001 -0.000001 -0.000001 0.796751 3.220237 -27.788712 0.800506 3.227226 -27.854649 0.000002 0.000000 -0.000003 0.797684 3.221933 -27.804729 0.799565 3.225552 -27.838606 0.000001 -0.000000 0.000000 2.684947 6.814143 -27.459483 0.809031 -0.835566 -28.291863 0.000000 -0.000001 0.000001 0.000001 -0.000001 -0.000000 0.445411 -0.777912 -3.588727 -96.770653 65.301151 91.341745 0.000008 28.227442 -0.000002 -31.535697 -1.128102 -3.934978 40.606598 -3.110614 26.124232 -37.849517 -44.265001 -46.874950 -0.000001 -0.000001 0.000000 3.635311 -6.110981 61.464449 7.728636 -6.904480 96.464435 -0.000003 -0.000001 -0.000001 3.635320 -6.110988 61.464449 7.728618 -6.904460 96.464449 -0.000003 -0.000001 -0.000004 3.635331 -6.111001 61.464449 7.728625 -6.904464 96.464442 0.000003 0.000000 -0.000001 3.635345 -6.111014 61.464435 7.728583 -6.904432 96.464449 0.000001 -0.000002 -0.000004 -0.000001 -0.000002 -0.000000 -0.000000 -0.000000 0.000000 -0.000000 -0.000000 0.000000 -0.000000 -0.000000 0.000000 -0.000000 -0.000000 0.000000 -0.000000 -0.000000 0.000000 -0.000000 -0.000000 0.000000 -0.000001 -0.000000 -0.000000 -0.000001 -0.000000 -0.000000 0.000000 0.000001 0.000000 -0.000000 -0.000000 -0.000000 
-0.673509 79.091850 2.017005 -1.679012 -16.996904 -1.868126 -0.000000 -0.000002 -0.000000 -32.952709 18.746552 14.344654 51.408307 0.340799 8.569301 -19.422121 1.678069 -8.501074 -0.000000 -0.000000 -0.000000 0.000001 0.000000 -0.000000 -0.000001 0.000000 0.000000 -26.279155 -23.830636 -13.319163 49.220286 -2.526204 -10.243718 -23.028109 -3.053417 12.773508 -0.000000 0.000000 0.000000 -0.000000 -0.000001 0.000002 -0.000000 -0.000001 -0.000001 3.850670 2.357601 -0.474157 2.899331 2.043579 -0.147449 2.864488 2.099782 -0.170384 1.085837 0.256951 5.236187 -1.804757 7.498497 2.008298 -0.000000 0.000000 -0.000000 -0.000000 0.000000 -0.000000 -0.000000 0.000000 -0.000000 -0.000000 0.000000 -0.000000 -0.000000 0.000000 -0.000000 -0.000000 0.000000 -0.000000 -0.000000 0.000000 -0.000000 -0.000000 0.000000 -0.000000 -0.000000 0.000000 -0.000000 -0.000000 0.000000 -0.000000 -0.000000 0.000000 -0.000000 -0.000000 0.000000 -0.000000 -0.000000 0.000000 -0.000000 -0.000000 0.000000 -0.000000 -0.000000 0.000000 -0.000000 -0.000000 0.000000 -0.000000 -0.000000 0.000000 -0.000000 -0.000000 0.000000 -0.000000 -0.000000 0.000000 -0.000000 1.287687 -4.591923 21.372331 -66.225938 -43.832770 -66.089573 -0.000001 -37.650093 -0.000002 -66.346292 -13.265043 -9.206497 22.600987 -28.107355 -14.151455 29.406823 28.726512 -29.411775 0.000003 -0.000003 -0.000001 0.797668 3.221938 -27.804715 0.799602 3.225512 -27.838615 0.000003 -0.000000 0.000002 0.796768 3.220236 -27.788691 0.800503 3.227220 -27.854644 0.000000 -0.000002 0.000002 0.797663 3.221955 -27.804720 0.799596 3.225546 -27.838615 0.000003 0.000000 0.000000 2.684954 6.814147 -27.459485 0.809049 -0.835569 -28.291863 -0.000001 -0.000001 0.000002 0.000001 0.000002 0.000001 0.432493 -0.830613 -3.627957 -97.091761 65.466175 91.848416 -0.000000 28.156135 0.000000 -31.844620 -1.022897 -3.997957 40.606608 -3.110614 26.124229 -37.849510 -44.265001 -46.874953 -0.000001 -0.000003 -0.000001 3.635315 -6.110980 61.464449 7.728638 -6.904489 96.464435 0.000001 0.000001 -0.000000 3.635320 -6.110986 61.464449 7.728614 -6.904464 96.464456 -0.000002 0.000001 -0.000001 3.635334 -6.111005 61.464449 7.728626 -6.904461 96.464442 -0.000001 -0.000003 0.000001 3.635352 -6.111015 61.464428 7.728578 -6.904430 96.464449 -0.000003 -0.000000 -0.000000 0.000000 -0.000002 -0.000000 -0.000000 -0.000000 -0.000000 -0.000000 -0.000000 -0.000000 -0.000000 -0.000000 -0.000000 -0.000000 -0.000000 -0.000000 -0.000000 -0.000000 -0.000000 -0.000001 -0.000000 0.000000 -0.000001 -0.000001 -0.000000 -0.000001 -0.000001 -0.000000 0.000000 0.000000 -0.000000 -0.000000 -0.000002 -0.000000 
-0.666278 79.097572 2.013946 -1.625432 -16.953395 -1.882014 0.000000 -0.000001 0.000000 -33.040774 18.798497 14.312917 51.385316 0.303297 8.707607 -19.390233 1.683765 -8.523862 0.000000 -0.000000 -0.000000 0.000000 0.000000 0.000001 -0.000001 -0.000000 -0.000000 -26.207644 -23.641918 -13.156051 49.120678 -2.789151 -10.241617 -22.970169 -3.077573 12.893729 -0.000000 0.000000 -0.000000 -0.000000 0.000005 0.000001 -0.000000 -0.000000 -0.000000 3.804295 2.329316 -0.495667 2.860568 2.025400 -0.161202 2.825895 2.080957 -0.184224 1.012363 0.275950 5.218361 -1.628339 7.575835 2.118157 0.000000 0.000000 -0.000000 0.000000 0.000000 -0.000000 0.000000 0.000000 -0.000000 0.000000 0.000000 -0.000000 0.000000 0.000000 -0.000000 0.000000 0.000000 -0.000000 0.000000 0.000000 -0.000000 0.000000 0.000000 -0.000000 0.000000 0.000000 -0.000000 0.000000 0.000000 -0.000000 0.000000 0.000000 -0.000000 0.000000 0.000000 -0.000000 0.000000 0.000000 -0.000000 0.000000 0.000000 -0.000000 0.000000 0.000000 -0.000000 0.000000 0.000000 -0.000000 0.000000 0.000000 -0.000000 0.000000 0.000000 -0.000000 0.000000 0.000000 -0.000000 1.196435 -4.307700 21.316489 -66.220289 -44.104700 -66.348744 -0.000003 -37.562349 -0.000000 -66.391351 -13.293650 -9.237422 22.600973 -28.107345 -14.151465 29.406833 28.726502 -29.411764 0.000002 -0.000000 -0.000000 0.797673 3.221920 -27.804729 0.799584 3.225521 -27.838623 0.000004 0.000000 0.000001 0.796775 3.220221 -27.788693 0.800495 3.227229 -27.854655 0.000001 0.000000 0.000000 0.797676 3.221937 -27.804720 0.799600 3.225544 -27.838615 0.000003 0.000000 0.000000 2.684933 6.814146 -27.459480 0.809051 -0.835565 -28.291866 -0.000001 -0.000001 0.000001 -0.000000 0.000003 -0.000000 0.420648 -0.879269 -3.679280 -97.395725 65.635352 92.333441 0.000005 28.079215 -0.000009 -32.174829 -0.927914 -4.091900 40.606605 -3.110614 26.124232 -37.849514 -44.265001 -46.874953 0.000000 -0.000004 -0.000002 3.635313 -6.110985 61.464449 7.728636 -6.904489 96.464435 -0.000001 0.000000 -0.000000 3.635317 -6.110986 61.464449 7.728615 -6.904456 96.464449 -0.000000 -0.000001 -0.000000 3.635334 -6.111004 61.464449 7.728622 -6.904459 96.464442 -0.000000 -0.000001 0.000003 3.635349 -6.111015 61.464428 7.728581 -6.904425 96.464449 -0.000001 -0.000001 0.000001 0.000001 -0.000000 -0.000000 0.000001 -0.000001 -0.000000 0.000001 -0.000001 -0.000000 0.000001 -0.000001 -0.000000 0.000001 -0.000001 -0.000000 0.000001 -0.000001 -0.000000 0.000001 -0.000001 0.000000 0.000001 -0.000001 0.000000 0.000001 -0.000001 0.000000 -0.000000 -0.000001 -0.000000 0.000000 -0.000001 0.000000 
-0.659069 79.103630 2.009213 -1.577171 -16.905439 -1.897639 0.000000 0.000002 -0.000000 -33.124003 18.845699 14.282797 51.362019 0.261270 8.839311 -19.356345 1.689895 -8.542568 0.000000 -0.000000 -0.000000 0.000004 0.000000 -0.000001 -0.000003 -0.000001 -0.000001 -26.130898 -23.454204 -12.992218 49.020466 -3.058507 -10.239326 -22.911426 -3.103247 13.014542 -0.000000 0.000000 -0.000000 -0.000001 -0.000001 0.000000 0.000005 -0.000004 -0.000001 3.755843 2.302333 -0.512512 2.820241 2.007303 -0.173256 2.785801 2.062070 -0.196306 0.943599 0.291476 5.199658 -1.444415 7.647642 2.241822 -0.000001 -0.000000 -0.000000 -0.000001 -0.000000 -0.000000 -0.000001 -0.000000 -0.000000 -0.000001 -0.000000 -0.000000 -0.000001 -0.000000 -0.000000 -0.000001 -0.000000 -0.000000 -0.000001 -0.000000 -0.000000 -0.000001 -0.000000 -0.000000 -0.000001 -0.000000 -0.000000 -0.000001 -0.000000 -0.000000 -0.000001 -0.000000 -0.000000 -0.000001 -0.000000 -0.000000 -0.000001 -0.000000 -0.000000 -0.000001 -0.000000 -0.000000 -0.000001 -0.000000 -0.000000 -0.000001 -0.000000 -0.000000 -0.000001 -0.000000 -0.000000 -0.000001 -0.000000 -0.000000 -0.000001 -0.000000 -0.000000 1.103779 -4.021742 21.257212 -66.219189 -44.417000 -66.594713 -0.000016 -37.422251 -0.000008 -66.480533 -13.341983 -9.321728 22.600983 -28.107371 -14.151501 29.406836 28.726512 -29.411775 0.000002 0.000001 -0.000001 0.797680 3.221911 -27.804729 0.799596 3.225512 -27.838613 -0.000001 -0.000002 0.000000 0.796776 3.220213 -27.788712 0.800512 3.227214 -27.854649 -0.000001 -0.000001 -0.000002 0.797677 3.221933 -27.804737 0.799602 3.225543 -27.838610 -0.000000 0.000000 0.000000 2.684958 6.814131 -27.459483 0.809044 -0.835584 -28.291866 0.000002 -0.000001 -0.000000 0.000002 -0.000002 -0.000000 0.410448 -0.920572 -3.746360 -97.673706 65.806578 92.793454 -0.000001 28.006405 0.000005 -32.526324 -0.855767 -4.208728 40.606608 -3.110613 26.124229 -37.849521 -44.265001 -46.874953 -0.000001 0.000002 0.000001 3.635317 -6.110983 61.464449 7.728637 -6.904483 96.464428 0.000003 0.000000 0.000005 3.635323 -6.110987 61.464456 7.728614 -6.904460 96.464442 -0.000000 -0.000001 -0.000002 3.635335 -6.111004 61.464449 7.728636 -6.904464 96.464442 0.000002 -0.000001 0.000003 3.635353 -6.111015 61.464435 7.728579 -6.904430 96.464442 -0.000002 -0.000000 -0.000002 0.000001 -0.000000 0.000000 0.000000 -0.000000 0.000000 0.000000 -0.000000 0.000000 0.000000 -0.000000 0.000000 0.000000 -0.000000 0.000000 0.000000 -0.000000 0.000000 0.000000 -0.000000 0.000000 0.000000 -0.000000 0.000000 0.000000 -0.000000 0.000000 -0.000000 -0.000000 0.000000 0.000000 0.000002 -0.000000 
